<svg width="28" height="28" viewBox="0 0 28 28" fill="none" xmlns="http://www.w3.org/2000/svg">
<path d="M12.8333 12.8335V8.16683H15.1667V12.8335H19.8333V15.1668H15.1667V19.8335H12.8333V15.1668H8.16668V12.8335H12.8333ZM14 25.6668C7.55668 25.6668 2.33334 20.4434 2.33334 14.0002C2.33334 7.55684 7.55668 2.3335 14 2.3335C20.4433 2.3335 25.6667 7.55684 25.6667 14.0002C25.6667 20.4434 20.4433 25.6668 14 25.6668ZM14 23.3335C19.1547 23.3335 23.3333 19.1548 23.3333 14.0002C23.3333 8.8455 19.1547 4.66683 14 4.66683C8.84535 4.66683 4.66668 8.8455 4.66668 14.0002C4.66668 19.1548 8.84535 23.3335 14 23.3335Z" fill="#FAFAFA"/>
</svg>
