<svg width="18" height="18" viewBox="0 0 18 18" fill="none" xmlns="http://www.w3.org/2000/svg">
<g clip-path="url(#clip0_424_4333)">
<path fill-rule="evenodd" clip-rule="evenodd" d="M8.97318 0C4.01125 0 0 4.125 0 9.22819C0 13.3074 2.57014 16.7604 6.13561 17.9826C6.58139 18.0744 6.74467 17.784 6.74467 17.5397C6.74467 17.3258 6.72998 16.5924 6.72998 15.8284C4.23386 16.3785 3.71406 14.7283 3.71406 14.7283C3.31292 13.6588 2.71855 13.3839 2.71855 13.3839C1.90157 12.8186 2.77806 12.8186 2.77806 12.8186C3.68431 12.8797 4.15984 13.7659 4.15984 13.7659C4.96194 15.1714 6.25445 14.7742 6.77443 14.5297C6.84863 13.9339 7.08649 13.5214 7.33904 13.2922C5.3482 13.0783 3.25359 12.2839 3.25359 8.73919C3.25359 7.73081 3.60992 6.90581 4.17453 6.26419C4.08545 6.03506 3.77339 5.08763 4.2638 3.81956C4.2638 3.81956 5.02145 3.57506 6.7298 4.76681C7.4612 4.56481 8.21549 4.46205 8.97318 4.46119C9.73084 4.46119 10.5032 4.56825 11.2164 4.76681C12.9249 3.57506 13.6826 3.81956 13.6826 3.81956C14.173 5.08763 13.8607 6.03506 13.7717 6.26419C14.3511 6.90581 14.6928 7.73081 14.6928 8.73919C14.6928 12.2839 12.5982 13.0629 10.5924 13.2922C10.9194 13.5825 11.2015 14.1324 11.2015 15.0034C11.2015 16.2409 11.1868 17.2341 11.1868 17.5395C11.1868 17.784 11.3503 18.0744 11.7959 17.9827C15.3613 16.7603 17.9315 13.3074 17.9315 9.22819C17.9462 4.125 13.9202 0 8.97318 0Z" fill="#24292F"/>
</g>
<defs>
<clipPath id="clip0_424_4333">
<rect width="18" height="18" fill="white"/>
</clipPath>
</defs>
</svg>
