<svg width="28" height="29" viewBox="0 0 28 29" fill="none" xmlns="http://www.w3.org/2000/svg">
<path d="M13.9999 2.48047C20.4399 2.48047 25.6666 7.70714 25.6666 14.1471C25.6666 20.5871 20.4399 25.8138 13.9999 25.8138C7.55992 25.8138 2.33325 20.5871 2.33325 14.1471C2.33325 7.70714 7.55992 2.48047 13.9999 2.48047ZM13.9999 23.4805C19.1566 23.4805 23.3333 19.3038 23.3333 14.1471C23.3333 8.99047 19.1566 4.8138 13.9999 4.8138C8.84325 4.8138 4.66659 8.99047 4.66659 14.1471C4.66659 19.3038 8.84325 23.4805 13.9999 23.4805ZM15.1666 14.1471V18.8138H12.8333V14.1471H9.33325L13.9999 9.48047L18.6666 14.1471H15.1666Z" fill="#FAFAFA"/>
</svg>
