<svg width="40" height="40" viewBox="0 0 40 40" fill="none" xmlns="http://www.w3.org/2000/svg">
<path d="M0 20C0 8.95431 8.95431 0 20 0C31.0457 0 40 8.95431 40 20C40 31.0457 31.0457 40 20 40C8.95431 40 0 31.0457 0 20Z" fill="#E5EEFF"/>
<path d="M14.4142 23.8905L24.5563 13.7483L23.1421 12.3341L13 22.4763V23.8905H14.4142ZM15.2426 25.8905H11V21.6479L22.435 10.2128C22.8256 9.82229 23.4587 9.82229 23.8492 10.2128L26.6777 13.0412C27.0682 13.4318 27.0682 14.0649 26.6777 14.4555L15.2426 25.8905ZM11 27.8905H29V29.8905H11V27.8905Z" fill="#99B9FF"/>
</svg>
