<svg width="40" height="41" viewBox="0 0 40 41" fill="none" xmlns="http://www.w3.org/2000/svg">
<path d="M0 20.0684C0 9.02267 8.95431 0.0683594 20 0.0683594C31.0457 0.0683594 40 9.02267 40 20.0684C40 31.1141 31.0457 40.0684 20 40.0684C8.95431 40.0684 0 31.1141 0 20.0684Z" fill="#E5EEFF"/>
<path d="M19.135 10.5685L9.6088 27.0686C9.33261 27.5469 9.4965 28.1585 9.9748 28.4346C10.1268 28.5224 10.2992 28.5686 10.4748 28.5686H29.5273C30.0796 28.5686 30.5273 28.1209 30.5273 27.5686C30.5273 27.393 30.4811 27.2206 30.3934 27.0686L20.8671 10.5685C20.5909 10.0902 19.9794 9.92636 19.5011 10.2025C19.349 10.2903 19.2228 10.4165 19.135 10.5685ZM21.0011 23.5686V25.5686H19.0011V23.5686H21.0011ZM21.0011 16.5685V21.5686H19.0011V16.5685H21.0011Z" fill="#99B9FF"/>
</svg>
