<svg width="28" height="28" viewBox="0 0 28 28" fill="none" xmlns="http://www.w3.org/2000/svg">
<path fill-rule="evenodd" clip-rule="evenodd" d="M8.07447 1.57948C9.53041 0.976412 11.0909 0.666016 12.6668 0.666016C14.2427 0.666016 15.8031 0.976412 17.2591 1.57948C18.715 2.18255 20.0379 3.06649 21.1523 4.18081C22.2666 5.29514 23.1505 6.61804 23.7536 8.07398C24.3567 9.52992 24.6671 11.0904 24.6671 12.6663C24.6671 14.2422 24.3567 15.8027 23.7536 17.2586C23.3213 18.3022 22.7448 19.2774 22.0425 20.1564L26.9429 25.0568C27.4636 25.5775 27.4636 26.4217 26.9429 26.9424C26.4222 27.4631 25.578 27.4631 25.0573 26.9424L20.1569 22.0421C18.0406 23.7329 15.4018 24.6666 12.6668 24.6666C9.48411 24.6666 6.43179 23.4023 4.1813 21.1518C1.93081 18.9013 0.666504 15.849 0.666504 12.6663C0.666504 9.48362 1.93081 6.4313 4.1813 4.18081C5.29563 3.06649 6.61853 2.18255 8.07447 1.57948ZM12.6668 3.33268C11.4411 3.33268 10.2274 3.5741 9.09496 4.04316C7.96256 4.51222 6.93363 5.19973 6.06692 6.06643C4.31653 7.81682 3.33317 10.1909 3.33317 12.6663C3.33317 15.1417 4.31653 17.5158 6.06692 19.2661C7.81731 21.0165 10.1914 21.9999 12.6668 21.9999C15.1422 21.9999 17.5162 21.0165 19.2666 19.2661C20.1333 18.3994 20.8209 17.3705 21.2899 16.2381C21.759 15.1057 22.0004 13.892 22.0004 12.6663C22.0004 11.4406 21.759 10.2269 21.2899 9.09447C20.8209 7.96207 20.1333 6.93314 19.2666 6.06643C18.3999 5.19973 17.371 4.51222 16.2386 4.04316C15.1062 3.5741 13.8925 3.33268 12.6668 3.33268Z" fill="#242424"/>
</svg>
