<svg width="24" height="24" viewBox="0 0 24 24" fill="none" xmlns="http://www.w3.org/2000/svg">
<path d="M11.9999 0.333496C18.4432 0.333496 23.6666 5.55684 23.6666 12.0002C23.6666 18.4434 18.4432 23.6668 11.9999 23.6668C5.55659 23.6668 0.333252 18.4434 0.333252 12.0002C0.333252 5.55684 5.55659 0.333496 11.9999 0.333496ZM12.1862 16.6668C9.8116 16.6668 7.67371 17.6803 6.18147 19.2984C7.77704 20.5721 9.79958 21.3335 11.9999 21.3335C14.2977 21.3335 16.4014 20.5032 18.0276 19.1263C16.5448 17.6088 14.4755 16.6668 12.1862 16.6668ZM11.9999 2.66683C6.84526 2.66683 2.66659 6.8455 2.66659 12.0002C2.66659 14.1125 3.36834 16.061 4.55142 17.6251C6.46571 15.5983 9.17827 14.3335 12.1862 14.3335C15.0847 14.3335 17.7088 15.5079 19.6087 17.4067C20.6946 15.8813 21.3333 14.0153 21.3333 12.0002C21.3333 6.8455 17.1546 2.66683 11.9999 2.66683ZM11.9999 3.8335C14.5772 3.8335 16.6666 5.92283 16.6666 8.50016C16.6666 11.0774 14.5772 13.1668 11.9999 13.1668C9.42259 13.1668 7.33325 11.0774 7.33325 8.50016C7.33325 5.92283 9.42259 3.8335 11.9999 3.8335ZM11.9999 6.16683C10.7112 6.16683 9.66658 7.2115 9.66658 8.50016C9.66658 9.78886 10.7112 10.8335 11.9999 10.8335C13.2886 10.8335 14.3333 9.78886 14.3333 8.50016C14.3333 7.2115 13.2886 6.16683 11.9999 6.16683Z" fill="#80A8FF"/>
</svg>
