<svg width="137" height="20" viewBox="0 0 137 20" fill="none" xmlns="http://www.w3.org/2000/svg">
<path d="M8.65672 0H20.3433C25.1243 0 29 3.67356 29 8.20513C29 12.7367 25.1243 16.4103 20.3433 16.4103H12.9851V20C7.57463 17.9487 0 14.8718 0 8.20513C0 3.67356 3.87574 0 8.65672 0Z" fill="#0051FF"/>
<path d="M127.412 15.5904V3.79518H122.742V0.384766H136.362V3.79518H131.713V15.5904H127.412Z" fill="#0051FF"/>
<path d="M116.924 15.5904V0.384766H121.336V15.5904H116.924Z" fill="#0051FF"/>
<path d="M114.751 3.81689V13.4399C114.751 15.6266 114.159 17.2631 112.986 18.3492C111.828 19.4498 110.325 20.0001 108.139 20.0001C106.994 20.0001 105.923 19.8697 104.924 19.6091C103.939 19.3484 103.099 18.9646 102.404 18.4578L103.903 15.5687C104.366 15.9597 104.945 16.2638 105.64 16.4811C106.35 16.7128 107.052 16.8286 107.748 16.8286C108.79 16.8286 109.558 16.5897 110.05 16.1118C110.542 15.6339 110.789 14.9243 110.789 13.983V13.7223C109.905 14.5622 108.805 14.9822 107.487 14.9822C105.966 14.9822 104.75 14.5333 103.837 13.6354C102.94 12.7376 102.491 11.3908 102.491 9.59505V3.81689H106.402V8.92166C106.402 9.81952 106.68 10.4712 107.013 10.8767C107.346 11.2822 107.936 11.4849 108.573 11.4849C109.225 11.4849 109.753 11.2532 110.159 10.7898C110.579 10.3264 110.789 9.63126 110.789 8.70443V3.81689H114.751Z" fill="#0051FF"/>
<path d="M95.4511 12.6364C96.0159 12.6364 96.5011 12.5567 96.9065 12.3974C97.3265 12.2381 97.7465 11.9775 98.1664 11.6154L100.317 13.8746C99.2019 15.1489 97.5365 15.7861 95.3208 15.7861C93.9451 15.7861 92.7358 15.5255 91.6932 15.0041C90.6505 14.4828 89.8395 13.7587 89.2603 12.8319C88.6955 11.9051 88.4131 10.8551 88.4131 9.68213C88.4131 8.5236 88.6955 7.48817 89.2603 6.57583C89.825 5.64901 90.5998 4.92493 91.5846 4.40359C92.5838 3.88225 93.6989 3.62158 94.9298 3.62158C96.0739 3.62158 97.1165 3.86053 98.0578 4.33842C99.0136 4.80183 99.7739 5.48971 100.339 6.40205C100.903 7.29991 101.186 8.37155 101.186 9.61696L92.7793 11.2244C93.2282 12.1657 94.1188 12.6364 95.4511 12.6364ZM94.9515 6.55411C94.2419 6.55411 93.6627 6.77857 93.2137 7.2275C92.7648 7.66195 92.5114 8.2919 92.4535 9.11735L97.2324 8.18328C97.0876 7.69091 96.8124 7.29991 96.4069 7.01028C96.0014 6.70616 95.5163 6.55411 94.9515 6.55411Z" fill="#0051FF"/>
<path d="M88.8044 3.81689L83.9386 15.5904H79.681L74.8369 3.81689H79.0728L81.8967 11.007L84.8727 3.81689H88.8044Z" fill="#0051FF"/>
<path d="M69.9493 5.22904C70.3693 4.69322 70.9124 4.29498 71.5785 4.03431C72.2591 3.75916 73.0339 3.62158 73.9028 3.62158V7.33611C73.5263 7.29267 73.2149 7.27094 72.9687 7.27094C72.0854 7.27094 71.3903 7.50989 70.8834 7.98778C70.391 8.46568 70.1448 9.197 70.1448 10.1817V15.5906H66.0176V3.81708H69.9493V5.22904Z" fill="#0051FF"/>
<path d="M63.8368 3.81689V15.5904H59.9051V14.3305C59.4706 14.8084 58.9493 15.1705 58.3411 15.4167C57.7328 15.6628 57.0884 15.7859 56.4078 15.7859C54.8872 15.7859 53.6707 15.337 52.7584 14.4391C51.8606 13.5413 51.4116 12.1945 51.4116 10.3988V3.81689H55.5389V9.72539C55.5389 10.6088 55.7054 11.2532 56.0385 11.6587C56.3716 12.0642 56.8567 12.2669 57.4939 12.2669C58.1456 12.2669 58.6741 12.0424 59.0796 11.5935C59.4996 11.1301 59.7096 10.4277 59.7096 9.48644V3.81689H63.8368Z" fill="#0051FF"/>
<path d="M43.4081 15.8945C42.1772 15.8945 40.9824 15.7424 39.8239 15.4383C38.6654 15.1342 37.7241 14.7287 37 14.2218L38.412 11.0504C39.0926 11.4993 39.8818 11.8613 40.7797 12.1365C41.6776 12.4116 42.5609 12.5492 43.4298 12.5492C45.0807 12.5492 45.9062 12.1365 45.9062 11.311C45.9062 10.8766 45.6672 10.558 45.1893 10.3553C44.7259 10.138 43.9729 9.91357 42.9302 9.68187C41.7862 9.43568 40.8304 9.17501 40.0629 8.89986C39.2953 8.61023 38.6364 8.15406 38.0861 7.53135C37.5358 6.90864 37.2607 6.06871 37.2607 5.01155C37.2607 4.08473 37.5141 3.25204 38.021 2.51347C38.5278 1.76043 39.2809 1.16669 40.2801 0.732239C41.2938 0.297791 42.532 0.0805664 43.9946 0.0805664C44.9938 0.0805664 45.9786 0.196419 46.9489 0.428125C47.9191 0.645349 48.7735 0.971185 49.5121 1.40563L48.187 4.59882C46.7389 3.81682 45.3342 3.42582 43.9729 3.42582C43.1185 3.42582 42.4958 3.55615 42.1048 3.81682C41.7138 4.06301 41.5183 4.38884 41.5183 4.79433C41.5183 5.19981 41.75 5.50392 42.2134 5.70667C42.6768 5.90941 43.4226 6.11939 44.4508 6.33662C45.6093 6.58281 46.5651 6.85071 47.3181 7.14035C48.0857 7.4155 48.7446 7.86443 49.2949 8.48713C49.8597 9.09536 50.1421 9.92805 50.1421 10.9852C50.1421 11.8976 49.8886 12.723 49.3818 13.4616C48.8749 14.2001 48.1146 14.7939 47.1009 15.2428C46.0872 15.6772 44.8563 15.8945 43.4081 15.8945Z" fill="#0051FF"/>
</svg>
