<svg width="28" height="28" viewBox="0 0 28 28" fill="none" xmlns="http://www.w3.org/2000/svg">
<path d="M14 2.33301C20.4433 2.33301 25.6667 7.55635 25.6667 13.9997C25.6667 20.4429 20.4433 25.6663 14 25.6663C7.55667 25.6663 2.33333 20.4429 2.33333 13.9997C2.33333 7.55635 7.55667 2.33301 14 2.33301ZM14.1863 18.6663C11.8117 18.6663 9.67379 19.6798 8.18155 21.2979C9.77712 22.5716 11.7997 23.333 14 23.333C16.2977 23.333 18.4015 22.5027 20.0277 21.1258C18.5449 19.6083 16.4755 18.6663 14.1863 18.6663ZM14 4.66634C8.84534 4.66634 4.66667 8.84501 4.66667 13.9997C4.66667 16.112 5.36842 18.0605 6.5515 19.6246C8.46579 17.5978 11.1783 16.333 14.1863 16.333C17.0848 16.333 19.7088 17.5074 21.6088 19.4062C22.6947 17.8808 23.3333 16.0149 23.3333 13.9997C23.3333 8.84501 19.1547 4.66634 14 4.66634ZM14 5.83301C16.5773 5.83301 18.6667 7.92234 18.6667 10.4997C18.6667 13.077 16.5773 15.1663 14 15.1663C11.4227 15.1663 9.33333 13.077 9.33333 10.4997C9.33333 7.92234 11.4227 5.83301 14 5.83301ZM14 8.16634C12.7113 8.16634 11.6667 9.21101 11.6667 10.4997C11.6667 11.7884 12.7113 12.833 14 12.833C15.2887 12.833 16.3333 11.7884 16.3333 10.4997C16.3333 9.21101 15.2887 8.16634 14 8.16634Z" fill="#0051FF"/>
</svg>
