<svg width="24" height="24" viewBox="0 0 24 24" fill="none" xmlns="http://www.w3.org/2000/svg">
<path d="M12 0.402344C18.4433 0.402344 23.6667 5.62569 23.6667 12.069C23.6667 18.5123 18.4433 23.7357 12 23.7357C5.55668 23.7357 0.333336 18.5123 0.333336 12.069C0.333336 5.62569 5.55668 0.402344 12 0.402344ZM12.1863 16.7357C9.81169 16.7357 7.67379 17.7492 6.18156 19.3672C7.77712 20.641 9.79967 21.4023 12 21.4023C14.2978 21.4023 16.4015 20.572 18.0277 19.1951C16.5449 17.6776 14.4756 16.7357 12.1863 16.7357ZM12 2.73568C6.84534 2.73568 2.66667 6.91435 2.66667 12.069C2.66667 14.1814 3.36842 16.1298 4.5515 17.694C6.46579 15.6671 9.17835 14.4023 12.1863 14.4023C15.0848 14.4023 17.7089 15.5767 19.6088 17.4756C20.6947 15.9502 21.3333 14.0842 21.3333 12.069C21.3333 6.91435 17.1547 2.73568 12 2.73568ZM12 3.90234C14.5773 3.90234 16.6667 5.99168 16.6667 8.56901C16.6667 11.1463 14.5773 13.2357 12 13.2357C9.42267 13.2357 7.33334 11.1463 7.33334 8.56901C7.33334 5.99168 9.42267 3.90234 12 3.90234ZM12 6.23568C10.7113 6.23568 9.66667 7.28035 9.66667 8.56901C9.66667 9.85771 10.7113 10.9023 12 10.9023C13.2887 10.9023 14.3333 9.85771 14.3333 8.56901C14.3333 7.28035 13.2887 6.23568 12 6.23568Z" fill="#80A8FF"/>
</svg>
