<svg width="24" height="24" viewBox="0 0 24 24" fill="none" xmlns="http://www.w3.org/2000/svg">
<path d="M12 0.402344C18.44 0.402344 23.6667 5.62901 23.6667 12.069C23.6667 18.509 18.44 23.7357 12 23.7357C5.56 23.7357 0.333336 18.509 0.333336 12.069C0.333336 5.62901 5.56 0.402344 12 0.402344ZM5.02721 16.0547C6.7393 18.6104 9.31096 20.2357 12.1863 20.2357C15.0617 20.2357 17.6334 18.6104 19.3455 16.0547C17.4699 14.3057 14.9531 13.2357 12.1863 13.2357C9.41958 13.2357 6.90278 14.3057 5.02721 16.0547ZM12 10.9023C13.9331 10.9023 15.5 9.33534 15.5 7.40234C15.5 5.46935 13.9331 3.90234 12 3.90234C10.067 3.90234 8.5 5.46935 8.5 7.40234C8.5 9.33534 10.067 10.9023 12 10.9023Z" fill="#80A8FF"/>
</svg>
