<svg width="24" height="24" viewBox="0 0 24 24" fill="none" xmlns="http://www.w3.org/2000/svg">
<path fill-rule="evenodd" clip-rule="evenodd" d="M19.2 5.6H16V4H14.4V5.6H9.6V4H8V5.6H4.8C4.35818 5.6 4 5.95818 4 6.4V19.2C4 19.6418 4.35818 20 4.8 20H19.2C19.6418 20 20 19.6418 20 19.2V6.4C20 5.95818 19.6418 5.6 19.2 5.6ZM5.6 18.4V10.4H18.4V18.4H5.6ZM8.8 13.6V12H7.2V13.6H8.8ZM12.8 12H11.2V13.6H12.8V12ZM16.8 13.6V12H15.2V13.6H16.8ZM8.79998 15.1997H7.19998V16.7997H8.79998V15.1997ZM12.8 15.1997H11.2V16.7997H12.8V15.1997ZM15.2 15.1997H16.8V16.7997H15.2V15.1997Z" fill="#545760"/>
</svg>
