<svg width="62" height="62" viewBox="0 0 62 62" fill="none" xmlns="http://www.w3.org/2000/svg">
<path d="M30.9994 0.166992C48.0194 0.166992 61.8327 13.9803 61.8327 31.0003C61.8327 48.0203 48.0194 61.8337 30.9994 61.8337C13.9793 61.8337 0.166016 48.0203 0.166016 31.0003C0.166016 13.9803 13.9793 0.166992 30.9994 0.166992ZM12.5713 41.5339C17.0961 48.2883 23.8926 52.5837 31.4918 52.5837C39.0909 52.5837 45.8875 48.2883 50.4123 41.5339C45.4556 36.9117 38.8039 34.0837 31.4918 34.0837C24.1797 34.0837 17.5281 36.9117 12.5713 41.5339ZM30.9994 27.917C36.1081 27.917 40.2494 23.7756 40.2494 18.667C40.2494 13.5584 36.1081 9.41699 30.9994 9.41699C25.8906 9.41699 21.7494 13.5584 21.7494 18.667C21.7494 23.7756 25.8906 27.917 30.9994 27.917Z" fill="#80A8FF"/>
</svg>
