<svg width="18" height="16" viewBox="0 0 18 16" fill="none" xmlns="http://www.w3.org/2000/svg">
<path d="M8.27909 0.500794L0.340588 14.2508C0.110422 14.6494 0.247004 15.1591 0.645588 15.3892C0.772254 15.4623 0.915921 15.5008 1.06225 15.5008H16.9394C17.3996 15.5008 17.7727 15.1277 17.7727 14.6675C17.7727 14.5212 17.7342 14.3775 17.6611 14.2508L9.7225 0.500794C9.49234 0.10221 8.98275 -0.0343482 8.58417 0.195769C8.45742 0.26891 8.35225 0.37411 8.27909 0.500794ZM15.496 13.8342H2.50559L9.00084 2.58413L15.496 13.8342ZM9.83417 11.3342H8.1675V13.0008H9.83417V11.3342ZM9.83417 5.50079H8.1675V9.66749H9.83417V5.50079Z" fill="#C1C5CC"/>
</svg>
