<svg width="646" height="307" viewBox="0 0 646 307" fill="none" xmlns="http://www.w3.org/2000/svg">
<g opacity="0.8">
<path d="M-50.2095 304.437C-53.1739 300.502 -51.086 294.819 -46.2791 293.739L90.4066 263.032C93.4353 262.352 96.5393 263.815 97.9426 266.583L186.39 441.093C188.754 445.757 185.174 451.229 179.953 450.93L57.8946 443.949C55.9041 443.836 54.0645 442.852 52.8649 441.259L-50.2095 304.437Z" fill="#D0E9FF"/>
<path d="M455.912 -20.1416L-36.9225 78.1891L248.107 768.612C250.175 773.622 256.982 774.294 259.994 769.786L670.276 155.764L455.912 -20.1416Z" fill="url(#paint0_linear_3079_46663)"/>
<path d="M210.556 60.2496C211.73 59.8382 212.994 59.7588 214.209 60.0199L695.487 163.37L307.423 798.913C304.717 803.344 298.254 803.212 295.731 798.674L-61.8336 155.708L210.556 60.2496Z" fill="url(#paint1_linear_3079_46663)"/>
<g style="mix-blend-mode:screen">
<path d="M199.898 417.308C205.591 417.658 209.147 411.252 205.84 406.605L144.792 320.828C143.193 318.582 140.393 317.527 137.71 318.16L101.202 326.775C96.487 327.887 94.4246 333.441 97.2707 337.361L151.359 411.855C152.549 413.494 154.409 414.516 156.431 414.64L199.898 417.308Z" fill="#D0DDFF" fill-opacity="0.4"/>
</g>
<g style="mix-blend-mode:overlay">
<path d="M533.663 263.376C535.391 258.244 530.704 253.256 525.475 254.661L429.897 280.341C427.892 280.88 426.244 282.308 425.425 284.217L407.933 324.993C405.597 330.441 410.881 336.054 416.46 334.05L519.635 296.985C521.585 296.284 523.108 294.731 523.769 292.767L533.663 263.376Z" fill="#83FFBC"/>
</g>
</g>
<rect width="646" height="369" fill="url(#paint2_linear_3079_46663)"/>
<defs>
<linearGradient id="paint0_linear_3079_46663" x1="167.932" y1="-127.436" x2="675.121" y2="614.951" gradientUnits="userSpaceOnUse">
<stop stop-color="#D0E9FF"/>
<stop offset="1" stop-color="#D0E9FF" stop-opacity="0"/>
</linearGradient>
<linearGradient id="paint1_linear_3079_46663" x1="609.519" y1="6.56429" x2="0.162977" y2="635.668" gradientUnits="userSpaceOnUse">
<stop stop-color="#D0E9FF"/>
<stop offset="1" stop-color="#D0E9FF" stop-opacity="0"/>
</linearGradient>
<linearGradient id="paint2_linear_3079_46663" x1="323" y1="0" x2="323" y2="369" gradientUnits="userSpaceOnUse">
<stop stop-color="#F9F9FB"/>
<stop offset="1" stop-color="#F9F9FB" stop-opacity="0"/>
</linearGradient>
</defs>
</svg>
