<svg width="770" height="379" viewBox="0 0 770 379" fill="none" xmlns="http://www.w3.org/2000/svg">
<g clip-path="url(#clip0_3740_29662)">
<path d="M0 12C0 5.37259 5.37258 0 12 0H758C764.627 0 770 5.37258 770 12V367C770 373.627 764.627 379 758 379H12C5.37258 379 0 373.627 0 367V12Z" fill="#F9F9FB"/>
<g opacity="0.8">
<path d="M42.9702 304.437C40.0058 300.502 42.0937 294.819 46.9006 293.739L183.586 263.032C186.615 262.352 189.719 263.815 191.122 266.583L279.57 441.093C281.934 445.757 278.353 451.229 273.133 450.93L151.074 443.949C149.084 443.836 147.244 442.852 146.045 441.259L42.9702 304.437Z" fill="#D0E9FF"/>
<path d="M549.092 -20.1416L56.2572 78.1891L341.286 768.612C343.355 773.622 350.162 774.294 353.174 769.786L763.456 155.764L549.092 -20.1416Z" fill="url(#paint0_linear_3740_29662)"/>
<path d="M303.736 60.2496C304.909 59.8382 306.173 59.7588 307.389 60.0199L788.667 163.37L400.602 798.913C397.897 803.344 391.434 803.212 388.91 798.674L31.3461 155.708L303.736 60.2496Z" fill="url(#paint1_linear_3740_29662)"/>
<g style="mix-blend-mode:screen">
<path d="M293.078 417.308C298.77 417.658 302.327 411.252 299.02 406.605L237.971 320.828C236.373 318.582 233.573 317.527 230.889 318.16L194.381 326.775C189.667 327.887 187.604 333.441 190.45 337.361L244.539 411.855C245.729 413.494 247.589 414.516 249.61 414.64L293.078 417.308Z" fill="#D0DDFF" fill-opacity="0.4"/>
</g>
<g style="mix-blend-mode:overlay">
<path d="M695.189 342.812C698.138 337.561 693.289 331.356 687.481 332.949L566.616 366.098C564.625 366.644 562.991 368.067 562.178 369.964L538.287 425.659C536.124 430.7 540.53 436.09 545.901 434.974L653.295 412.646C655.214 412.247 656.867 411.037 657.827 409.328L695.189 342.812Z" fill="#83A5FF"/>
</g>
<g style="mix-blend-mode:overlay">
<path d="M626.843 263.376C628.571 258.244 623.884 253.256 618.655 254.661L523.077 280.341C521.072 280.88 519.423 282.308 518.605 284.217L501.113 324.993C498.776 330.441 504.061 336.054 509.639 334.05L612.814 296.985C614.765 296.284 616.287 294.731 616.948 292.767L626.843 263.376Z" fill="#83FFBC"/>
</g>
</g>
<rect width="770" height="369" fill="url(#paint2_linear_3740_29662)"/>
</g>
<path d="M0.5 12C0.5 5.64873 5.64873 0.5 12 0.5H758C764.351 0.5 769.5 5.64873 769.5 12V367C769.5 373.351 764.351 378.5 758 378.5H12C5.64872 378.5 0.5 373.351 0.5 367V12Z" stroke="#E5EEFF"/>
<defs>
<linearGradient id="paint0_linear_3740_29662" x1="261.112" y1="-127.436" x2="768.301" y2="614.951" gradientUnits="userSpaceOnUse">
<stop stop-color="#D0E9FF"/>
<stop offset="1" stop-color="#D0E9FF" stop-opacity="0"/>
</linearGradient>
<linearGradient id="paint1_linear_3740_29662" x1="702.698" y1="6.56429" x2="93.3427" y2="635.668" gradientUnits="userSpaceOnUse">
<stop stop-color="#D0E9FF"/>
<stop offset="1" stop-color="#D0E9FF" stop-opacity="0"/>
</linearGradient>
<linearGradient id="paint2_linear_3740_29662" x1="385" y1="0" x2="385" y2="369" gradientUnits="userSpaceOnUse">
<stop stop-color="#F9F9FB"/>
<stop offset="1" stop-color="#F9F9FB" stop-opacity="0"/>
</linearGradient>
<clipPath id="clip0_3740_29662">
<path d="M0 12C0 5.37259 5.37258 0 12 0H758C764.627 0 770 5.37258 770 12V367C770 373.627 764.627 379 758 379H12C5.37258 379 0 373.627 0 367V12Z" fill="white"/>
</clipPath>
</defs>
</svg>
